# xmcd CD database file
# Copyright (C) 1993-1998 Ti Kan
#
# Track frame offsets:
#	150
#	18192
#	31420
#	47217
#	71712
#	93042
#	108667
#	130892
#	150297
#	165732
#	183365
#	202360
#	220447
#
# Disc length: 3124 seconds
#
# Revision: 4
# Processed by: cddbd v1.4b41PL1 Copyright (c) Steve Scherf et al.
# Submitted via: NotifyCDPlayer(CDDB) 1.51.1
#
DISCID=b50c320d
DTITLE=Luther "Guitar Junior" Johnson and The Magic Rockers - Doin' the Sugar 
DTITLE=Too
DYEAR=1900
DGENRE=
TTITLE0=Doin' the Sugar Too
TTITLE1=Flippin' and Floppin'
TTITLE2=I'm Ready
TTITLE3=I Need Some Air
TTITLE4=Woke Up This Mornin'
TTITLE5=Hard Times (Have Surely Come)
TTITLE6=Get On The Floor
TTITLE7=Time To Make My Getaway
TTITLE8=Bad Boy
TTITLE9=You Were Wrong
TTITLE10=Early in the Mornin' Blues
TTITLE11=What You Don't Know Won't Hurt You
TTITLE12=Doin' the Sugar Too (alternate take)
EXTD=Luther "Guitar Junior" Johnson - vocals, guitar\n\n        "This album 
EXTD=is dedicated to Muddy Waters and Magic Sam."\n\nThe Magic Rockers:\n   
EXTD=Ron Levy - piano, organ\n        Walter Smith - bass\n        Mich
EXTD=ael Avery - drums\n\nRoomful of Blues Horns (tracks 2, 5, 6, 7, 12):\n 
EXTD=Greg Piccolo - tenor saxophone\n        Rich Lataille - alto sax
EXTD=ophone\n        Doug "Mr. Low" James - baritone saxophone\n        Bob 
EXTD=Enos - trumpet\n        Porky Cohen - trombone\n\nBullseye Blues CD BB 
EXTD=9563 (p) (c) 1997 Rounder Records Corp.
EXTT0=
EXTT1=
EXTT2=
EXTT3=
EXTT4=
EXTT5=
EXTT6=
EXTT7=
EXTT8=
EXTT9=
EXTT10=
EXTT11=
EXTT12=
PLAYORDER=
